<svg width="18" height="15" viewBox="0 0 18 15" fill="none" xmlns="http://www.w3.org/2000/svg">
<g id="Frame">
<path id="Vector" fill-rule="evenodd" clip-rule="evenodd" d="M4.3125 5.62561C4.3125 4.38241 4.80636 3.19012 5.68544 2.31105C6.56451 1.43197 7.7568 0.93811 9 0.93811C10.2432 0.93811 11.4355 1.43197 12.3146 2.31105C13.1936 3.19012 13.6875 4.38241 13.6875 5.62561C13.6875 6.37874 13.4469 7.23561 13.1038 8.08061C12.7569 8.93311 12.29 9.80998 11.8038 10.615C11.36 11.3487 10.8787 12.059 10.3619 12.7431C9.93187 13.3087 9.53938 13.7631 9.2925 13.96C9.20944 14.0263 9.1063 14.0624 9 14.0624C8.8937 14.0624 8.79056 14.0263 8.7075 13.96C8.46062 13.7631 8.06813 13.3087 7.63812 12.7431C7.12146 12.059 6.64041 11.3487 6.19687 10.615C5.70937 9.80998 5.24312 8.93311 4.89687 8.07999C4.55312 7.23561 4.3125 6.37874 4.3125 5.62561ZM9 7.65624C9.53872 7.65624 10.0554 7.44223 10.4363 7.0613C10.8172 6.68036 11.0312 6.16371 11.0312 5.62499C11.0312 5.08626 10.8172 4.56961 10.4363 4.18867C10.0554 3.80774 9.53872 3.59374 9 3.59374C8.46128 3.59374 7.94462 3.80774 7.56369 4.18867C7.18276 4.56961 6.96875 5.08626 6.96875 5.62499C6.96875 6.16371 7.18276 6.68036 7.56369 7.0613C7.94462 7.44223 8.46128 7.65624 9 7.65624Z" fill="white"/>
</g>
</svg>
