<svg width="24" height="24" viewBox="0 0 24 24" fill="none" xmlns="http://www.w3.org/2000/svg">
<g clip-path="url(#clip0_0_25)">
<path d="M16.794 3.74999C18.118 3.74999 19.362 4.26599 20.298 5.20099C21.2262 6.1309 21.7475 7.3911 21.7475 8.70499C21.7475 10.0189 21.2262 11.2791 20.298 12.209L12 20.508L3.70102 12.209C2.77313 11.2791 2.25201 10.0191 2.25201 8.70549C2.25201 7.39185 2.77313 6.13186 3.70102 5.20199C4.16005 4.74029 4.7061 4.37422 5.30757 4.12498C5.90903 3.87575 6.55396 3.74829 7.20502 3.74999C8.52902 3.74999 9.77302 4.26599 10.709 5.20099L11.469 5.96099L12 6.49199L12.53 5.96099L13.29 5.20099C13.7492 4.7396 14.2953 4.37381 14.8968 4.12475C15.4982 3.8757 16.1431 3.74832 16.794 3.74999Z" stroke="#111111" stroke-width="1.5"/>
</g>
<defs>
<clipPath id="clip0_0_25">
<rect width="24" height="24" fill="white"/>
</clipPath>
</defs>
</svg>
